<svg width="245" height="113" viewBox="0 0 245 113" fill="none" xmlns="http://www.w3.org/2000/svg">
<path d="M61.4716 67.3636L61.4716 79L59.0114 79L59.0114 67.3636L61.4716 67.3636ZM65.8707 73.9545L65.8707 79L63.4503 79L63.4503 70.2727L65.7571 70.2727L65.7571 71.8125L65.8594 71.8125C66.0526 71.3049 66.3764 70.9034 66.831 70.608C67.2855 70.3087 67.8366 70.1591 68.4844 70.1591C69.0904 70.1591 69.6188 70.2917 70.0696 70.5568C70.5204 70.822 70.8707 71.2008 71.1207 71.6932C71.3707 72.1818 71.4957 72.7652 71.4957 73.4432L71.4957 79L69.0753 79L69.0753 73.875C69.0791 73.3409 68.9427 72.9242 68.6662 72.625C68.3897 72.322 68.009 72.1705 67.5241 72.1705C67.1984 72.1705 66.9105 72.2405 66.6605 72.3807C66.4143 72.5208 66.2211 72.7254 66.081 72.9943C65.9446 73.2595 65.8745 73.5795 65.8707 73.9545ZM78.0455 70.2727L78.0455 72.0909L72.7898 72.0909L72.7898 70.2727L78.0455 70.2727ZM73.983 68.1818L76.4034 68.1818L76.4034 76.3182C76.4034 76.5417 76.4375 76.7159 76.5057 76.8409C76.5739 76.9621 76.6686 77.0473 76.7898 77.0966C76.9148 77.1458 77.0587 77.1705 77.2216 77.1705C77.3352 77.1705 77.4489 77.161 77.5625 77.142C77.6761 77.1193 77.7633 77.1023 77.8239 77.0909L78.2045 78.892C78.0833 78.9299 77.9129 78.9735 77.6932 79.0227C77.4735 79.0758 77.2064 79.108 76.892 79.1193C76.3087 79.142 75.7973 79.0644 75.358 78.8864C74.9223 78.7083 74.5833 78.4318 74.3409 78.0568C74.0985 77.6818 73.9792 77.2083 73.983 76.6364L73.983 68.1818ZM83.5057 79.1705C82.608 79.1705 81.8352 78.9886 81.1875 78.625C80.5436 78.2576 80.0473 77.7386 79.6989 77.0682C79.3504 76.3939 79.1761 75.5966 79.1761 74.6761C79.1761 73.7784 79.3504 72.9905 79.6989 72.3125C80.0473 71.6345 80.5379 71.1061 81.1705 70.7273C81.8068 70.3485 82.553 70.1591 83.4091 70.1591C83.9848 70.1591 84.5208 70.2519 85.017 70.4375C85.517 70.6193 85.9527 70.8939 86.3239 71.2614C86.6989 71.6288 86.9905 72.0909 87.1989 72.6477C87.4072 73.2008 87.5114 73.8485 87.5114 74.5909L87.5114 75.2557L80.142 75.2557L80.142 73.7557L85.233 73.7557C85.233 73.4072 85.1572 73.0985 85.0057 72.8295C84.8542 72.5606 84.6439 72.3504 84.375 72.1989C84.1098 72.0436 83.8011 71.9659 83.4489 71.9659C83.0814 71.9659 82.7557 72.0511 82.4716 72.2216C82.1913 72.3883 81.9716 72.6136 81.8125 72.8977C81.6534 73.178 81.572 73.4905 81.5682 73.8352L81.5682 75.2614C81.5682 75.6932 81.6477 76.0663 81.8068 76.3807C81.9697 76.6951 82.1989 76.9375 82.4943 77.108C82.7898 77.2784 83.1402 77.3636 83.5455 77.3636C83.8144 77.3636 84.0606 77.3258 84.2841 77.25C84.5076 77.1742 84.6989 77.0606 84.858 76.9091C85.017 76.7576 85.1383 76.572 85.2216 76.3523L87.4602 76.5C87.3466 77.0379 87.1136 77.5076 86.7614 77.9091C86.4129 78.3068 85.9621 78.6174 85.4091 78.8409C84.8598 79.0606 84.2254 79.1705 83.5057 79.1705ZM91.5114 67.3636L91.5114 79L89.0909 79L89.0909 67.3636L91.5114 67.3636ZM95.8707 67.3636L95.8707 79L93.4503 79L93.4503 67.3636L95.8707 67.3636ZM101.787 79.1705C100.889 79.1705 100.116 78.9886 99.4687 78.625C98.8248 78.2576 98.3286 77.7386 97.9801 77.0682C97.6316 76.3939 97.4574 75.5966 97.4574 74.6761C97.4574 73.7784 97.6316 72.9905 97.9801 72.3125C98.3286 71.6345 98.8191 71.1061 99.4517 70.7273C100.088 70.3485 100.834 70.1591 101.69 70.1591C102.266 70.1591 102.802 70.2519 103.298 70.4375C103.798 70.6193 104.234 70.8939 104.605 71.2614C104.98 71.6288 105.272 72.0909 105.48 72.6477C105.688 73.2008 105.793 73.8485 105.793 74.5909L105.793 75.2557L98.4233 75.2557L98.4233 73.7557L103.514 73.7557C103.514 73.4072 103.438 73.0985 103.287 72.8295C103.135 72.5606 102.925 72.3504 102.656 72.1989C102.391 72.0436 102.082 71.9659 101.73 71.9659C101.363 71.9659 101.037 72.0511 100.753 72.2216C100.473 72.3883 100.253 72.6136 100.094 72.8977C99.9347 73.178 99.8532 73.4905 99.8494 73.8352L99.8494 75.2614C99.8494 75.6932 99.929 76.0663 100.088 76.3807C100.251 76.6951 100.48 76.9375 100.776 77.108C101.071 77.2784 101.421 77.3636 101.827 77.3636C102.096 77.3636 102.342 77.3258 102.565 77.25C102.789 77.1742 102.98 77.0606 103.139 76.9091C103.298 76.7576 103.42 76.572 103.503 76.3523L105.741 76.5C105.628 77.0379 105.395 77.5076 105.043 77.9091C104.694 78.3068 104.243 78.6174 103.69 78.8409C103.141 79.0606 102.507 79.1705 101.787 79.1705ZM109.239 70.2727L110.841 73.3239L112.483 70.2727L114.966 70.2727L112.437 74.6364L115.034 79L112.562 79L110.841 75.983L109.148 79L106.648 79L109.239 74.6364L106.739 70.2727L109.239 70.2727ZM118.455 79L115.818 79L119.835 67.3636L123.006 67.3636L127.017 79L124.381 79L121.466 70.0227L121.375 70.0227L118.455 79ZM118.29 74.4261L124.517 74.4261L124.517 76.3466L118.29 76.3466L118.29 74.4261ZM128.419 79L128.419 70.2727L130.839 70.2727L130.839 79L128.419 79ZM129.635 69.1477C129.275 69.1477 128.966 69.0284 128.709 68.7898C128.455 68.5473 128.328 68.2576 128.328 67.9205C128.328 67.5871 128.455 67.3011 128.709 67.0625C128.966 66.8201 129.275 66.6989 129.635 66.6989C129.995 66.6989 130.302 66.8201 130.555 67.0625C130.813 67.3011 130.942 67.5871 130.942 67.9205C130.942 68.2576 130.813 68.5473 130.555 68.7898C130.302 69.0284 129.995 69.1477 129.635 69.1477ZM142.839 70.7102C142.794 70.2519 142.599 69.8958 142.254 69.642C141.91 69.3883 141.442 69.2614 140.851 69.2614C140.449 69.2614 140.11 69.3182 139.834 69.4318C139.557 69.5417 139.345 69.6951 139.197 69.892C139.054 70.089 138.982 70.3125 138.982 70.5625C138.974 70.7708 139.018 70.9527 139.112 71.108C139.211 71.2633 139.345 71.3977 139.516 71.5114C139.686 71.6212 139.883 71.7178 140.107 71.8011C140.33 71.8807 140.569 71.9489 140.822 72.0057L141.868 72.2557C142.375 72.3693 142.841 72.5208 143.266 72.7102C143.69 72.8996 144.057 73.1326 144.368 73.4091C144.679 73.6856 144.919 74.0114 145.089 74.3864C145.264 74.7614 145.353 75.1913 145.357 75.6761C145.353 76.3883 145.171 77.0057 144.811 77.5284C144.455 78.0473 143.94 78.4508 143.266 78.7386C142.595 79.0227 141.786 79.1648 140.839 79.1648C139.9 79.1648 139.082 79.0208 138.385 78.733C137.692 78.4451 137.15 78.0189 136.76 77.4545C136.374 76.8864 136.171 76.1837 136.152 75.3466L138.533 75.3466C138.559 75.7367 138.671 76.0625 138.868 76.3239C139.069 76.5814 139.336 76.7765 139.669 76.9091C140.006 77.0379 140.387 77.1023 140.811 77.1023C141.228 77.1023 141.589 77.0417 141.896 76.9205C142.207 76.7992 142.447 76.6307 142.618 76.4148C142.788 76.1989 142.874 75.9508 142.874 75.6705C142.874 75.4091 142.796 75.1894 142.641 75.0114C142.489 74.8333 142.266 74.6818 141.97 74.5568C141.679 74.4318 141.321 74.3182 140.896 74.2159L139.629 73.8977C138.648 73.6591 137.874 73.286 137.305 72.7784C136.737 72.2708 136.455 71.5871 136.459 70.7273C136.455 70.0227 136.643 69.4072 137.021 68.8807C137.404 68.3542 137.929 67.9432 138.595 67.6477C139.262 67.3523 140.019 67.2045 140.868 67.2045C141.732 67.2045 142.485 67.3523 143.129 67.6477C143.777 67.9432 144.281 68.3542 144.641 68.8807C145 69.4072 145.186 70.017 145.197 70.7102L142.839 70.7102ZM151.608 70.2727L151.608 72.0909L146.352 72.0909L146.352 70.2727L151.608 70.2727ZM147.545 68.1818L149.966 68.1818L149.966 76.3182C149.966 76.5417 150 76.7159 150.068 76.8409C150.136 76.9621 150.231 77.0473 150.352 77.0966C150.477 77.1458 150.621 77.1705 150.784 77.1705C150.898 77.1705 151.011 77.161 151.125 77.142C151.239 77.1193 151.326 77.1023 151.386 77.0909L151.767 78.892C151.646 78.9299 151.475 78.9735 151.256 79.0227C151.036 79.0758 150.769 79.108 150.455 79.1193C149.871 79.142 149.36 79.0644 148.92 78.8864C148.485 78.7083 148.146 78.4318 147.903 78.0568C147.661 77.6818 147.542 77.2083 147.545 76.6364L147.545 68.1818ZM158.781 75.2841L158.781 70.2727L161.202 70.2727L161.202 79L158.878 79L158.878 77.4148L158.787 77.4148C158.59 77.9261 158.262 78.3371 157.804 78.6477C157.349 78.9583 156.795 79.1136 156.139 79.1136C155.556 79.1136 155.043 78.9811 154.599 78.7159C154.156 78.4508 153.81 78.0739 153.56 77.5852C153.313 77.0966 153.188 76.5114 153.185 75.8295L153.185 70.2727L155.605 70.2727L155.605 75.3977C155.609 75.9129 155.747 76.3201 156.02 76.6193C156.293 76.9186 156.658 77.0682 157.116 77.0682C157.408 77.0682 157.681 77.0019 157.935 76.8693C158.188 76.733 158.393 76.5322 158.548 76.267C158.707 76.0019 158.785 75.6742 158.781 75.2841ZM166.354 79.142C165.691 79.142 165.09 78.9716 164.553 78.6307C164.018 78.286 163.594 77.7803 163.28 77.1136C162.969 76.4432 162.814 75.6212 162.814 74.6477C162.814 73.6477 162.975 72.8163 163.297 72.1534C163.619 71.4867 164.047 70.9886 164.581 70.6591C165.119 70.3258 165.708 70.1591 166.348 70.1591C166.837 70.1591 167.244 70.2424 167.57 70.4091C167.899 70.572 168.164 70.7765 168.365 71.0227C168.57 71.2652 168.725 71.5038 168.831 71.7386L168.905 71.7386L168.905 67.3636L171.32 67.3636L171.32 79L168.933 79L168.933 77.6023L168.831 77.6023C168.717 77.8447 168.556 78.0852 168.348 78.3239C168.143 78.5587 167.876 78.7538 167.547 78.9091C167.221 79.0644 166.823 79.142 166.354 79.142ZM167.121 77.2159C167.511 77.2159 167.84 77.1098 168.109 76.8977C168.382 76.6818 168.59 76.3807 168.734 75.9943C168.882 75.608 168.956 75.1553 168.956 74.6364C168.956 74.1174 168.884 73.6667 168.74 73.2841C168.596 72.9015 168.388 72.6061 168.115 72.3977C167.842 72.1894 167.511 72.0852 167.121 72.0852C166.723 72.0852 166.388 72.1932 166.115 72.4091C165.842 72.625 165.636 72.9242 165.496 73.3068C165.356 73.6894 165.286 74.1326 165.286 74.6364C165.286 75.1439 165.356 75.5928 165.496 75.983C165.64 76.3693 165.846 76.6723 166.115 76.892C166.388 77.108 166.723 77.2159 167.121 77.2159ZM177.287 79.1705C176.389 79.1705 175.616 78.9886 174.969 78.625C174.325 78.2576 173.829 77.7386 173.48 77.0682C173.132 76.3939 172.957 75.5966 172.957 74.6761C172.957 73.7784 173.132 72.9905 173.48 72.3125C173.829 71.6345 174.319 71.1061 174.952 70.7273C175.588 70.3485 176.334 70.1591 177.19 70.1591C177.766 70.1591 178.302 70.2519 178.798 70.4375C179.298 70.6193 179.734 70.8939 180.105 71.2614C180.48 71.6288 180.772 72.0909 180.98 72.6477C181.188 73.2008 181.293 73.8485 181.293 74.5909L181.293 75.2557L173.923 75.2557L173.923 73.7557L179.014 73.7557C179.014 73.4072 178.938 73.0985 178.787 72.8295C178.635 72.5606 178.425 72.3504 178.156 72.1989C177.891 72.0436 177.582 71.9659 177.23 71.9659C176.863 71.9659 176.537 72.0511 176.253 72.2216C175.973 72.3883 175.753 72.6136 175.594 72.8977C175.435 73.178 175.353 73.4905 175.349 73.8352L175.349 75.2614C175.349 75.6932 175.429 76.0663 175.588 76.3807C175.751 76.6951 175.98 76.9375 176.276 77.108C176.571 77.2784 176.921 77.3636 177.327 77.3636C177.596 77.3636 177.842 77.3258 178.065 77.25C178.289 77.1742 178.48 77.0606 178.639 76.9091C178.798 76.7576 178.92 76.572 179.003 76.3523L181.241 76.5C181.128 77.0379 180.895 77.5076 180.543 77.9091C180.194 78.3068 179.743 78.6174 179.19 78.8409C178.641 79.0606 178.007 79.1705 177.287 79.1705ZM185.293 73.9545L185.293 79L182.872 79L182.872 70.2727L185.179 70.2727L185.179 71.8125L185.281 71.8125C185.474 71.3049 185.798 70.9034 186.253 70.608C186.707 70.3087 187.259 70.1591 187.906 70.1591C188.512 70.1591 189.041 70.2917 189.491 70.5568C189.942 70.822 190.293 71.2008 190.543 71.6932C190.793 72.1818 190.918 72.7651 190.918 73.4432L190.918 79L188.497 79L188.497 73.875C188.501 73.3409 188.365 72.9242 188.088 72.625C187.812 72.322 187.431 72.1705 186.946 72.1705C186.62 72.1705 186.332 72.2405 186.082 72.3807C185.836 72.5208 185.643 72.7254 185.503 72.9943C185.366 73.2595 185.296 73.5795 185.293 73.9545ZM197.467 70.2727L197.467 72.0909L192.212 72.0909L192.212 70.2727L197.467 70.2727ZM193.405 68.1818L195.825 68.1818L195.825 76.3182C195.825 76.5417 195.859 76.7159 195.928 76.8409C195.996 76.9621 196.09 77.0473 196.212 77.0966C196.337 77.1458 196.481 77.1705 196.643 77.1705C196.757 77.1705 196.871 77.161 196.984 77.142C197.098 77.1193 197.185 77.1023 197.246 77.0909L197.626 78.892C197.505 78.9299 197.335 78.9735 197.115 79.0227C196.895 79.0758 196.628 79.108 196.314 79.1193C195.731 79.142 195.219 79.0644 194.78 78.8864C194.344 78.7083 194.005 78.4318 193.763 78.0568C193.52 77.6818 193.401 77.2083 193.405 76.6364L193.405 68.1818ZM61.017 98L58.3807 98L62.3977 86.3636L65.5682 86.3636L69.5795 98L66.9432 98L64.0284 89.0227L63.9375 89.0227L61.017 98ZM60.8523 93.4261L67.0795 93.4261L67.0795 95.3466L60.8523 95.3466L60.8523 93.4261ZM77.9929 91.7614L75.777 91.8977C75.7391 91.7083 75.6577 91.5379 75.5327 91.3864C75.4077 91.2311 75.2429 91.108 75.0384 91.017C74.8376 90.9223 74.5971 90.875 74.3168 90.875C73.9418 90.875 73.6255 90.9545 73.3679 91.1136C73.1103 91.2689 72.9815 91.4773 72.9815 91.7386C72.9815 91.947 73.0649 92.1231 73.2315 92.267C73.3982 92.411 73.6842 92.5265 74.0895 92.6136L75.669 92.9318C76.5175 93.1061 77.1501 93.3864 77.5668 93.7727C77.9834 94.1591 78.1918 94.6667 78.1918 95.2955C78.1918 95.8674 78.0232 96.3693 77.6861 96.8011C77.3527 97.233 76.8944 97.5701 76.3111 97.8125C75.7315 98.0511 75.063 98.1705 74.3054 98.1705C73.1501 98.1705 72.2296 97.9299 71.544 97.4489C70.8622 96.964 70.4626 96.3049 70.3452 95.4716L72.7259 95.3466C72.7978 95.6989 72.9721 95.9678 73.2486 96.1534C73.5251 96.3352 73.8793 96.4261 74.3111 96.4261C74.7353 96.4261 75.0762 96.3447 75.3338 96.1818C75.5952 96.0152 75.7277 95.8011 75.7315 95.5398C75.7277 95.3201 75.6349 95.1402 75.4531 95C75.2713 94.8561 74.991 94.7462 74.6122 94.6705L73.1009 94.3693C72.2486 94.1989 71.6141 93.9034 71.1974 93.483C70.7846 93.0625 70.5781 92.5265 70.5781 91.875C70.5781 91.3144 70.7296 90.8314 71.0327 90.4261C71.3395 90.0208 71.7694 89.7083 72.3224 89.4886C72.8793 89.2689 73.5308 89.1591 74.277 89.1591C75.3793 89.1591 76.2467 89.392 76.8793 89.858C77.5156 90.3239 77.8868 90.9583 77.9929 91.7614ZM86.9773 91.7614L84.7614 91.8977C84.7235 91.7083 84.642 91.5379 84.517 91.3864C84.392 91.2311 84.2273 91.108 84.0227 91.017C83.822 90.9223 83.5814 90.875 83.3011 90.875C82.9261 90.875 82.6098 90.9545 82.3523 91.1136C82.0947 91.2689 81.9659 91.4773 81.9659 91.7386C81.9659 91.947 82.0492 92.1231 82.2159 92.267C82.3826 92.411 82.6686 92.5265 83.0739 92.6136L84.6534 92.9318C85.5019 93.1061 86.1345 93.3864 86.5511 93.7727C86.9678 94.1591 87.1761 94.6667 87.1761 95.2955C87.1761 95.8674 87.0076 96.3693 86.6705 96.8011C86.3371 97.233 85.8788 97.5701 85.2955 97.8125C84.7159 98.0511 84.0473 98.1705 83.2898 98.1705C82.1345 98.1705 81.214 97.9299 80.5284 97.4489C79.8466 96.964 79.447 96.3049 79.3295 95.4716L81.7102 95.3466C81.7822 95.6989 81.9564 95.9678 82.233 96.1534C82.5095 96.3352 82.8636 96.4261 83.2955 96.4261C83.7197 96.4261 84.0606 96.3447 84.3182 96.1818C84.5795 96.0152 84.7121 95.8011 84.7159 95.5398C84.7121 95.3201 84.6193 95.1402 84.4375 95C84.2557 94.8561 83.9754 94.7462 83.5966 94.6705L82.0852 94.3693C81.233 94.1989 80.5985 93.9034 80.1818 93.483C79.7689 93.0625 79.5625 92.5265 79.5625 91.875C79.5625 91.3144 79.714 90.8314 80.017 90.4261C80.3239 90.0208 80.7538 89.7083 81.3068 89.4886C81.8636 89.2689 82.5152 89.1591 83.2614 89.1591C84.3636 89.1591 85.2311 89.392 85.8636 89.858C86.5 90.3239 86.8712 90.9583 86.9773 91.7614ZM92.6435 98.1705C91.7609 98.1705 90.9976 97.983 90.3537 97.608C89.7135 97.2292 89.2192 96.7027 88.8707 96.0284C88.5223 95.3504 88.348 94.5644 88.348 93.6705C88.348 92.7689 88.5223 91.9811 88.8707 91.3068C89.2192 90.6288 89.7135 90.1023 90.3537 89.7273C90.9976 89.3485 91.7609 89.1591 92.6435 89.1591C93.526 89.1591 94.2874 89.3485 94.9276 89.7273C95.5715 90.1023 96.0677 90.6288 96.4162 91.3068C96.7647 91.9811 96.9389 92.7689 96.9389 93.6705C96.9389 94.5644 96.7647 95.3504 96.4162 96.0284C96.0677 96.7027 95.5715 97.2292 94.9276 97.608C94.2874 97.983 93.526 98.1705 92.6435 98.1705ZM92.6548 96.2955C93.0563 96.2955 93.3916 96.1818 93.6605 95.9545C93.9295 95.7235 94.1321 95.4091 94.2685 95.0114C94.4086 94.6136 94.4787 94.161 94.4787 93.6534C94.4787 93.1458 94.4086 92.6932 94.2685 92.2955C94.1321 91.8977 93.9295 91.5833 93.6605 91.3523C93.3916 91.1212 93.0563 91.0057 92.6548 91.0057C92.2495 91.0057 91.9086 91.1212 91.6321 91.3523C91.3594 91.5833 91.1529 91.8977 91.0128 92.2955C90.8764 92.6932 90.8082 93.1458 90.8082 93.6534C90.8082 94.161 90.8764 94.6136 91.0128 95.0114C91.1529 95.4091 91.3594 95.7235 91.6321 95.9545C91.9086 96.1818 92.2495 96.2955 92.6548 96.2955ZM102.456 98.1705C101.562 98.1705 100.793 97.9811 100.149 97.6023C99.509 97.2197 99.0166 96.6894 98.6719 96.0114C98.331 95.3333 98.1605 94.553 98.1605 93.6705C98.1605 92.7765 98.3329 91.9924 98.6776 91.3182C99.026 90.6402 99.5204 90.1117 100.161 89.733C100.801 89.3504 101.562 89.1591 102.445 89.1591C103.206 89.1591 103.873 89.2973 104.445 89.5739C105.017 89.8504 105.469 90.2386 105.803 90.7386C106.136 91.2386 106.32 91.8258 106.354 92.5L104.07 92.5C104.005 92.0644 103.835 91.714 103.558 91.4489C103.286 91.1799 102.928 91.0455 102.484 91.0455C102.109 91.0455 101.782 91.1477 101.501 91.3523C101.225 91.553 101.009 91.8466 100.854 92.233C100.698 92.6193 100.621 93.0871 100.621 93.6364C100.621 94.1932 100.696 94.6667 100.848 95.0568C101.003 95.447 101.221 95.7443 101.501 95.9489C101.782 96.1534 102.109 96.2557 102.484 96.2557C102.761 96.2557 103.009 96.1989 103.229 96.0852C103.452 95.9716 103.636 95.8068 103.78 95.5909C103.928 95.3712 104.024 95.108 104.07 94.8011L106.354 94.8011C106.316 95.4678 106.134 96.0549 105.808 96.5625C105.486 97.0663 105.041 97.4602 104.473 97.7443C103.905 98.0284 103.232 98.1705 102.456 98.1705ZM107.903 98L107.903 89.2727L110.324 89.2727L110.324 98L107.903 98ZM109.119 88.1477C108.759 88.1477 108.451 88.0284 108.193 87.7898C107.939 87.5473 107.812 87.2576 107.812 86.9205C107.812 86.5871 107.939 86.3011 108.193 86.0625C108.451 85.8201 108.759 85.6989 109.119 85.6989C109.479 85.6989 109.786 85.8201 110.04 86.0625C110.297 86.3011 110.426 86.5871 110.426 86.9205C110.426 87.2576 110.297 87.5473 110.04 87.7898C109.786 88.0284 109.479 88.1477 109.119 88.1477ZM114.751 98.1648C114.195 98.1648 113.698 98.0682 113.263 97.875C112.827 97.678 112.482 97.3883 112.229 97.0057C111.979 96.6193 111.854 96.1383 111.854 95.5625C111.854 95.0777 111.943 94.6705 112.121 94.3409C112.299 94.0114 112.541 93.7462 112.848 93.5455C113.155 93.3447 113.503 93.1932 113.893 93.0909C114.287 92.9886 114.7 92.9167 115.132 92.875C115.64 92.822 116.049 92.7727 116.359 92.7273C116.67 92.678 116.895 92.6061 117.036 92.5114C117.176 92.4167 117.246 92.2765 117.246 92.0909L117.246 92.0568C117.246 91.697 117.132 91.4186 116.905 91.2216C116.681 91.0246 116.363 90.9261 115.95 90.9261C115.515 90.9261 115.168 91.0227 114.911 91.2159C114.653 91.4053 114.482 91.6439 114.399 91.9318L112.161 91.75C112.274 91.2197 112.498 90.7614 112.831 90.375C113.164 89.9848 113.594 89.6856 114.121 89.4773C114.651 89.2652 115.265 89.1591 115.962 89.1591C116.446 89.1591 116.911 89.2159 117.354 89.3295C117.801 89.4432 118.196 89.6193 118.541 89.858C118.89 90.0966 119.164 90.4034 119.365 90.7784C119.566 91.1496 119.666 91.5947 119.666 92.1136L119.666 98L117.371 98L117.371 96.7898L117.303 96.7898C117.162 97.0625 116.975 97.303 116.74 97.5114C116.505 97.7159 116.223 97.8769 115.893 97.9943C115.564 98.108 115.183 98.1648 114.751 98.1648ZM115.445 96.4943C115.801 96.4943 116.115 96.4242 116.388 96.2841C116.661 96.1402 116.875 95.947 117.03 95.7045C117.185 95.4621 117.263 95.1875 117.263 94.8807L117.263 93.9545C117.187 94.0038 117.083 94.0492 116.95 94.0909C116.821 94.1288 116.676 94.1648 116.513 94.1989C116.35 94.2292 116.187 94.2576 116.024 94.2841C115.861 94.3068 115.714 94.3277 115.581 94.3466C115.297 94.3883 115.049 94.4545 114.837 94.5455C114.625 94.6364 114.46 94.7595 114.342 94.9148C114.225 95.0663 114.166 95.2557 114.166 95.483C114.166 95.8125 114.286 96.0644 114.524 96.2386C114.767 96.4091 115.073 96.4943 115.445 96.4943ZM126.186 89.2727L126.186 91.0909L120.93 91.0909L120.93 89.2727L126.186 89.2727ZM122.124 87.1818L124.544 87.1818L124.544 95.3182C124.544 95.5417 124.578 95.7159 124.646 95.8409C124.714 95.9621 124.809 96.0473 124.93 96.0966C125.055 96.1458 125.199 96.1705 125.362 96.1705C125.476 96.1705 125.589 96.161 125.703 96.142C125.817 96.1193 125.904 96.1023 125.964 96.0909L126.345 97.892C126.224 97.9299 126.054 97.9735 125.834 98.0227C125.614 98.0758 125.347 98.108 125.033 98.1193C124.449 98.142 123.938 98.0644 123.499 97.8864C123.063 97.7083 122.724 97.4318 122.482 97.0568C122.239 96.6818 122.12 96.2083 122.124 95.6364L122.124 87.1818ZM127.763 98L127.763 89.2727L130.183 89.2727L130.183 98L127.763 98ZM128.979 88.1477C128.619 88.1477 128.31 88.0284 128.053 87.7898C127.799 87.5473 127.672 87.2576 127.672 86.9205C127.672 86.5871 127.799 86.3011 128.053 86.0625C128.31 85.8201 128.619 85.6989 128.979 85.6989C129.339 85.6989 129.645 85.8201 129.899 86.0625C130.157 86.3011 130.286 86.5871 130.286 86.9205C130.286 87.2576 130.157 87.5473 129.899 87.7898C129.645 88.0284 129.339 88.1477 128.979 88.1477ZM136.065 98.1705C135.183 98.1705 134.42 97.983 133.776 97.608C133.135 97.2292 132.641 96.7027 132.293 96.0284C131.944 95.3504 131.77 94.5644 131.77 93.6705C131.77 92.7689 131.944 91.9811 132.293 91.3068C132.641 90.6288 133.135 90.1023 133.776 89.7273C134.42 89.3485 135.183 89.1591 136.065 89.1591C136.948 89.1591 137.709 89.3485 138.349 89.7273C138.993 90.1023 139.49 90.6288 139.838 91.3068C140.187 91.9811 140.361 92.7689 140.361 93.6705C140.361 94.5644 140.187 95.3504 139.838 96.0284C139.49 96.7027 138.993 97.2292 138.349 97.608C137.709 97.983 136.948 98.1705 136.065 98.1705ZM136.077 96.2955C136.478 96.2955 136.813 96.1818 137.082 95.9545C137.351 95.7235 137.554 95.4091 137.69 95.0114C137.83 94.6136 137.901 94.161 137.901 93.6534C137.901 93.1458 137.83 92.6932 137.69 92.2955C137.554 91.8977 137.351 91.5833 137.082 91.3523C136.813 91.1212 136.478 91.0057 136.077 91.0057C135.671 91.0057 135.33 91.1212 135.054 91.3523C134.781 91.5833 134.575 91.8977 134.435 92.2955C134.298 92.6932 134.23 93.1458 134.23 93.6534C134.23 94.161 134.298 94.6136 134.435 95.0114C134.575 95.4091 134.781 95.7235 135.054 95.9545C135.33 96.1818 135.671 96.2955 136.077 96.2955ZM144.355 92.9545L144.355 98L141.935 98L141.935 89.2727L144.241 89.2727L144.241 90.8125L144.344 90.8125C144.537 90.3049 144.861 89.9034 145.315 89.608C145.77 89.3087 146.321 89.1591 146.969 89.1591C147.575 89.1591 148.103 89.2917 148.554 89.5568C149.005 89.822 149.355 90.2008 149.605 90.6932C149.855 91.1818 149.98 91.7652 149.98 92.4432L149.98 98L147.56 98L147.56 92.875C147.563 92.3409 147.427 91.9242 147.151 91.625C146.874 91.322 146.493 91.1705 146.009 91.1705C145.683 91.1705 145.395 91.2405 145.145 91.3807C144.899 91.5208 144.705 91.7254 144.565 91.9943C144.429 92.2595 144.359 92.5795 144.355 92.9545Z" fill="white"/>
<path d="M94.2749 15.7954L94.2749 1.64331L110.357 1.64331L94.2749 15.7954Z" fill="#C30102" stroke="#C30102"/>
<path d="M94.2749 22.8714L111 6.78955L111 54.3919L107.14 54.3919L94.2749 32.5205L94.2749 22.8714Z" fill="white" stroke="white"/>
<path d="M56.3216 0.999999L0.999999 98.1345L18.3684 98.1345L64.6842 17.7251L85.269 53.7485L102.637 53.7485L73.0468 0.999999L56.3216 0.999999Z" fill="#C30102" stroke="#C30102"/>
</svg>
